<svg xmlns="http://www.w3.org/2000/svg"> 

<symbol id="logo" viewBox="0 0 24 24" fill="none" stroke="currentColor" stroke-width="1.5" data-slot="icon" aria-hidden="true">
            <circle cx="9" cy="20" r="1"></circle> <circle cx="17" cy="20" r="1"></circle> <path d="M1 1h4l2.68 13.39a2 2 0 0 0 2 1.61h9.72a2 2 0 0 0 2-1.61L23 6H6" stroke-linecap="round" stroke-linejoin="round" />
</symbol>

<symbol id="soporte" viewBox="0 0 24 24" fill="none" stroke="currentColor" stroke-linecap="round" stroke-linejoin="round">    
  <path d="M3 18v-6a9 9 0 0 1 18 0v6"></path>
  <path d="M21 19a2 2 0 0 1-2 2h-1a2 2 0 0 1-2-2v-3a2 2 0 0 1 2-2h3z"></path>
  <path d="M3 19a2 2 0 0 0 2 2h1a2 2 0 0 0 2-2v-3a2 2 0 0 0-2-2H3z"></path>
</symbol>

<symbol id="mensajeria" viewBox="0 0 200 120" fill="none" stroke="currentColor" stroke-width="4" stroke-linecap="round" stroke-linejoin="round">
  <rect x="50" y="30" width="70" height="50" />
  <path d="M120 40 H145 L155 55 V80 H120 Z" />
  <rect x="128" y="47" width="12" height="12" />
  <circle cx="70" cy="85" r="10" fill="white" stroke="none" />
  <circle cx="135" cy="85" r="10" fill="white" stroke="none" />
</symbol>


<symbol id="comentario" viewBox="0 0 24 24" fill="none" stroke="currentColor" stroke-width="2" stroke-linecap="round" stroke-linejoin="round">
  <path d="M21 15a2 2 0 0 1-2 2H7l-4 4V5a2 2 0 0 1 2-2h14a2 2 0 0 1 2 2z"></path>
</symbol>

<symbol id="twitter" x="0px" y="0px" width="20" height="20" viewBox="0 0 24 24" fill="currentColor">
                  <path
                    d="M 2.3671875 3 L 9.4628906 13.140625 L 2.7402344 21 L 5.3808594 21 L 10.644531 14.830078 L 14.960938 21 L 21.871094 21 L 14.449219 10.375 L 20.740234 3 L 18.140625 3 L 13.271484 8.6875 L 9.2988281 3 L 2.3671875 3 z M 6.2070312 5 L 8.2558594 5 L 18.033203 19 L 16.001953 19 L 6.2070312 5 z"
                  ></path>
                </symbol>

<symbol id="linkedin" x="0px" y="0px" width="24" height="24" viewBox="0 0 30 30" fill="currentColor">
                  <path
                    d="M24,4H6C4.895,4,4,4.895,4,6v18c0,1.105,0.895,2,2,2h18c1.105,0,2-0.895,2-2V6C26,4.895,25.105,4,24,4z M10.954,22h-2.95 v-9.492h2.95V22z M9.449,11.151c-0.951,0-1.72-0.771-1.72-1.72c0-0.949,0.77-1.719,1.72-1.719c0.948,0,1.719,0.771,1.719,1.719 C11.168,10.38,10.397,11.151,9.449,11.151z M22.004,22h-2.948v-4.616c0-1.101-0.02-2.517-1.533-2.517 c-1.535,0-1.771,1.199-1.771,2.437V22h-2.948v-9.492h2.83v1.297h0.04c0.394-0.746,1.356-1.533,2.791-1.533 c2.987,0,3.539,1.966,3.539,4.522V22z"
                  ></path>
                </symbol>       

<symbol id="instagram" x="0px" y="0px" width="24" height="24" viewBox="0 0 32 32" fill="currentColor"
                >
                  <path
                    d="M 11.46875 5 C 7.917969 5 5 7.914063 5 11.46875 L 5 20.53125 C 5 24.082031 7.914063 27 11.46875 27 L 20.53125 27 C 24.082031 27 27 24.085938 27 20.53125 L 27 11.46875 C 27 7.917969 24.085938 5 20.53125 5 Z M 11.46875 7 L 20.53125 7 C 23.003906 7 25 8.996094 25 11.46875 L 25 20.53125 C 25 23.003906 23.003906 25 20.53125 25 L 11.46875 25 C 8.996094 25 7 23.003906 7 20.53125 L 7 11.46875 C 7 8.996094 8.996094 7 11.46875 7 Z M 21.90625 9.1875 C 21.402344 9.1875 21 9.589844 21 10.09375 C 21 10.597656 21.402344 11 21.90625 11 C 22.410156 11 22.8125 10.597656 22.8125 10.09375 C 22.8125 9.589844 22.410156 9.1875 21.90625 9.1875 Z M 16 10 C 12.699219 10 10 12.699219 10 16 C 10 19.300781 12.699219 22 16 22 C 19.300781 22 22 19.300781 22 16 C 22 12.699219 19.300781 10 16 10 Z M 16 12 C 18.222656 12 20 13.777344 20 16 C 20 18.222656 18.222656 20 16 20 C 13.777344 20 12 18.222656 12 16 C 12 13.777344 13.777344 12 16 12 Z"
                  ></path>
                </symbol>                         

<symbol id="facebook" x="0px" y="0px" width="24" height="24" viewBox="0 0 30 30" fill="currentColor">
                  <path
                    d="M15,3C8.373,3,3,8.373,3,15c0,6.016,4.432,10.984,10.206,11.852V18.18h-2.969v-3.154h2.969v-2.099c0-3.475,1.693-5,4.581-5 c1.383,0,2.115,0.103,2.461,0.149v2.753h-1.97c-1.226,0-1.654,1.163-1.654,2.473v1.724h3.593L19.73,18.18h-3.106v8.697 C22.481,26.083,27,21.075,27,15C27,8.373,21.627,3,15,3z"
                  ></path>
                </symbol>

 <symbol id="eliminar" xmlns="http://www.w3.org/2000/svg"   fill= "currentColor" viewBox="0 0 16 16 " >
                  <path
                    d="M4.646 4.646a.5.5 0 0 1 .708 0L8 7.293l2.646-2.647a.5.5 0 0 1 .708.708L8.707 8l2.647 2.646a.5.5 0 0 1-.708.708L8 8.707l-2.646 2.647a.5.5 0 0 1-.708-.708L7.293 8 4.646 5.354a.5.5 0 0 1 0-.708"
                  ></path>
                </symbol>               
</svg>